Griffith_Gothic-Black.ufo
<glyph name="quotedbl" format="1">
  <advance width="442"/>
  <unicode hex="0022"/>
  <outline>
    <contour>
      <point x="404" y="720" type="line"/>
      <point x="365" y="440" type="line"/>
      <point x="286" y="440" type="line"/>
      <point x="247" y="720" type="line"/>
    </contour>
    <contour>
      <point x="195" y="720" type="line"/>
      <point x="156" y="440" type="line"/>
      <point x="77" y="440" type="line"/>
      <point x="38" y="720" type="line"/>
    </contour>
  </outline>
</glyph>
<glyph name="dollar" format="1">
  <advance width="588"/>
  <unicode hex="0024"/>
  <outline>
    <contour>
      <point x="562" y="202" type="curve" smooth="yes"/>
      <point x="562" y="87"/>
      <point x="473" y="13"/>
      <point x="335" y="1" type="curve"/>
      <point x="335" y="-95" type="line"/>
      <point x="253" y="-95" type="line"/>
      <point x="253" y="2" type="line"/>
      <point x="153" y="10"/>
      <point x="77" y="49"/>
      <point x="17" y="107" type="curve"/>
      <point x="95" y="198" type="line"/>
      <point x="143" y="151"/>
      <point x="196" y="117"/>
      <point x="262" y="108" type="curve"/>
      <point x="262" y="314" type="line"/>
      <point x="104" y="358"/>
      <point x="40" y="411"/>
      <point x="40" y="525" type="curve" smooth="yes"/>
      <point x="40" y="640"/>
      <point x="127" y="709"/>
      <point x="253" y="719" type="curve"/>
      <point x="253" y="762" type="line"/>
      <point x="335" y="762" type="line"/>
      <point x="335" y="718" type="line"/>
      <point x="419" y="711"/>
      <point x="477" y="683"/>
      <point x="535" y="634" type="curve"/>
      <point x="457" y="543" type="line"/>
      <point x="415" y="579"/>
      <point x="375" y="604"/>
      <point x="325" y="612" type="curve"/>
      <point x="325" y="419" type="line"/>
      <point x="502" y="368"/>
      <point x="562" y="319"/>
    </contour>
    <contour>
      <point x="262" y="437" type="curve"/>
      <point x="262" y="615" type="line"/>
      <point x="201" y="610"/>
      <point x="170" y="579"/>
      <point x="170" y="532" type="curve" smooth="yes"/>
      <point x="170" y="489"/>
      <point x="198" y="461"/>
    </contour>
    <contour>
      <point x="432" y="195" type="curve" smooth="yes"/>
      <point x="432" y="242"/>
      <point x="408" y="269"/>
      <point x="325" y="297" type="curve"/>
      <point x="325" y="105" type="line"/>
      <point x="395" y="111"/>
      <point x="432" y="142"/>
    </contour>
  </outline>
</glyph>
<glyph name="quotesingle" format="1">
  <advance width="236"/>
  <unicode hex="0027"/>
  <outline>
    <contour>
      <point x="198" y="720" type="line"/>
      <point x="159" y="440" type="line"/>
      <point x="77" y="440" type="line"/>
      <point x="38" y="720" type="line"/>
    </contour>
  </outline>
</glyph>
<glyph name="asterisk" format="1">
  <advance width="440"/>
  <unicode hex="002A"/>
  <outline>
    <contour>
      <point x="415" y="537" type="line"/>
      <point x="263" y="528" type="line"/>
      <point x="384" y="431" type="line"/>
      <point x="280" y="355" type="line"/>
      <point x="220" y="502" type="line"/>
      <point x="161" y="355" type="line"/>
      <point x="57" y="431" type="line"/>
      <point x="178" y="528" type="line"/>
      <point x="25" y="537" type="line"/>
      <point x="66" y="659" type="line"/>
      <point x="195" y="572" type="line"/>
      <point x="155" y="720" type="line"/>
      <point x="285" y="720" type="line"/>
      <point x="245" y="572" type="line"/>
      <point x="375" y="659" type="line"/>
    </contour>
  </outline>
</glyph>
<glyph name="zero" format="1">
  <advance width="620"/>
  <unicode hex="0030"/>
  <outline>
    <contour>
      <point x="583" y="328" type="line" smooth="yes"/>
      <point x="583" y="109"/>
      <point x="475" y="-12"/>
      <point x="310" y="-12" type="curve" smooth="yes"/>
      <point x="145" y="-12"/>
      <point x="37" y="109"/>
      <point x="37" y="328" type="curve" smooth="yes"/>
      <point x="37" y="392" type="line" smooth="yes"/>
      <point x="37" y="611"/>
      <point x="145" y="732"/>
      <point x="310" y="732" type="curve" smooth="yes"/>
      <point x="475" y="732"/>
      <point x="583" y="611"/>
      <point x="583" y="392" type="curve" smooth="yes"/>
    </contour>
    <contour>
      <point x="421" y="309" type="curve" smooth="yes"/>
      <point x="421" y="410" type="line" smooth="yes"/>
      <point x="421" y="534"/>
      <point x="387" y="611"/>
      <point x="310" y="611" type="curve" smooth="yes"/>
      <point x="234" y="611"/>
      <point x="200" y="534"/>
      <point x="200" y="411" type="curve" smooth="yes"/>
      <point x="200" y="310" type="line" smooth="yes"/>
      <point x="200" y="186"/>
      <point x="234" y="109"/>
      <point x="310" y="109" type="curve" smooth="yes"/>
      <point x="387" y="109"/>
      <point x="421" y="185"/>
    </contour>
  </outline>
</glyph>
<glyph name="three" format="1">
  <advance width="547"/>
  <unicode hex="0033"/>
  <outline>
    <contour>
      <point x="523" y="250" type="curve" smooth="yes"/>
      <point x="523" y="85"/>
      <point x="342" y="-8"/>
      <point x="21" y="-6" type="curve"/>
      <point x="21" y="104" type="line"/>
      <point x="258" y="107"/>
      <point x="367" y="165"/>
      <point x="367" y="249" type="curve" smooth="yes"/>
      <point x="367" y="306"/>
      <point x="331" y="331"/>
      <point x="275" y="331" type="curve" smooth="yes"/>
      <point x="240" y="331"/>
      <point x="210" y="325"/>
      <point x="176" y="314" type="curve"/>
      <point x="140" y="405" type="line"/>
      <point x="291" y="462"/>
      <point x="334" y="493"/>
      <point x="334" y="552" type="curve" smooth="yes"/>
      <point x="334" y="594"/>
      <point x="306" y="620"/>
      <point x="260" y="620" type="curve" smooth="yes"/>
      <point x="213" y="620"/>
      <point x="166" y="597"/>
      <point x="108" y="538" type="curve"/>
      <point x="27" y="614" type="line"/>
      <point x="102" y="692"/>
      <point x="177" y="732"/>
      <point x="281" y="732" type="curve" smooth="yes"/>
      <point x="413" y="732"/>
      <point x="483" y="668"/>
      <point x="483" y="579" type="curve" smooth="yes"/>
      <point x="483" y="498"/>
      <point x="426" y="448"/>
      <point x="331" y="410" type="curve"/>
      <point x="331" y="406" type="line"/>
      <point x="445" y="410"/>
      <point x="523" y="361"/>
    </contour>
  </outline>
</glyph>
<glyph name="six" format="1">
  <advance width="599"/>
  <unicode hex="0036"/>
  <outline>
    <contour>
      <point x="573" y="238" type="curve" smooth="yes"/>
      <point x="573" y="83"/>
      <point x="468" y="-12"/>
      <point x="301" y="-12" type="curve" smooth="yes"/>
      <point x="134" y="-12"/>
      <point x="35" y="74"/>
      <point x="35" y="259" type="curve" smooth="yes"/>
      <point x="35" y="419"/>
      <point x="123" y="586"/>
      <point x="271" y="720" type="curve"/>
      <point x="460" y="720" type="line"/>
      <point x="311" y="612"/>
      <point x="215" y="493"/>
      <point x="188" y="400" type="curve"/>
      <point x="194" y="400" type="line"/>
      <point x="235" y="440"/>
      <point x="282" y="467"/>
      <point x="360" y="467" type="curve" smooth="yes"/>
      <point x="480" y="467"/>
      <point x="573" y="388"/>
    </contour>
    <contour>
      <point x="420" y="229" type="curve" smooth="yes"/>
      <point x="420" y="307"/>
      <point x="382" y="363"/>
      <point x="306" y="363" type="curve" smooth="yes"/>
      <point x="230" y="363"/>
      <point x="187" y="303"/>
      <point x="187" y="228" type="curve" smooth="yes"/>
      <point x="187" y="150"/>
      <point x="229" y="93"/>
      <point x="303" y="93" type="curve" smooth="yes"/>
      <point x="378" y="93"/>
      <point x="420" y="150"/>
    </contour>
  </outline>
</glyph>
<glyph name="colon" format="1">
  <advance width="249"/>
  <unicode hex="003A"/>
  <outline>
    <contour>
      <point x="211" y="452" type="curve" smooth="yes"/>
      <point x="211" y="402"/>
      <point x="174" y="365"/>
      <point x="125" y="365" type="curve" smooth="yes"/>
      <point x="75" y="365"/>
      <point x="38" y="402"/>
      <point x="38" y="452" type="curve" smooth="yes"/>
      <point x="38" y="501"/>
      <point x="75" y="538"/>
      <point x="125" y="538" type="curve" smooth="yes"/>
      <point x="174" y="538"/>
      <point x="211" y="501"/>
    </contour>
    <contour>
      <point x="211" y="80" type="curve" smooth="yes"/>
      <point x="211" y="30"/>
      <point x="174" y="-7"/>
      <point x="125" y="-7" type="curve" smooth="yes"/>
      <point x="75" y="-7"/>
      <point x="38" y="30"/>
      <point x="38" y="80" type="curve" smooth="yes"/>
      <point x="38" y="129"/>
      <point x="75" y="166"/>
      <point x="125" y="166" type="curve" smooth="yes"/>
      <point x="174" y="166"/>
      <point x="211" y="129"/>
    </contour>
  </outline>
</glyph>
<glyph name="G" format="1">
  <advance width="650"/>
  <unicode hex="0047"/>
  <outline>
    <contour>
      <point x="605" y="-2" type="line"/>
      <point x="544" y="-2" type="line"/>
      <point x="524" y="141" type="line"/>
      <point x="519" y="141" type="line"/>
      <point x="481" y="45"/>
      <point x="415" y="-12"/>
      <point x="310" y="-12" type="curve" smooth="yes"/>
      <point x="143" y="-12"/>
      <point x="39" y="111"/>
      <point x="39" y="336" type="curve" smooth="yes"/>
      <point x="39" y="384" type="line" smooth="yes"/>
      <point x="39" y="608"/>
      <point x="151" y="732"/>
      <point x="322" y="732" type="curve" smooth="yes"/>
      <point x="487" y="732"/>
      <point x="560" y="638"/>
      <point x="587" y="505" type="curve"/>
      <point x="434" y="468" type="line"/>
      <point x="418" y="562"/>
      <point x="386" y="611"/>
      <point x="322" y="611" type="curve" smooth="yes"/>
      <point x="242" y="611"/>
      <point x="204" y="534"/>
      <point x="204" y="404" type="curve" smooth="yes"/>
      <point x="204" y="317" type="line" smooth="yes"/>
      <point x="204" y="183"/>
      <point x="247" y="109"/>
      <point x="325" y="109" type="curve" smooth="yes"/>
      <point x="397" y="109"/>
      <point x="435" y="166"/>
      <point x="442" y="286" type="curve"/>
      <point x="326" y="286" type="line"/>
      <point x="326" y="348" type="line"/>
      <point x="605" y="348" type="line"/>
    </contour>
  </outline>
</glyph>
<glyph name="I" format="1">
  <advance width="435"/>
  <unicode hex="0049"/>
  <outline>
    <contour>
      <point x="396" y="0" type="line"/>
      <point x="40" y="0" type="line"/>
      <point x="40" y="61" type="line"/>
      <point x="138" y="61" type="line"/>
      <point x="138" y="659" type="line"/>
      <point x="40" y="659" type="line"/>
      <point x="40" y="720" type="line"/>
      <point x="396" y="720" type="line"/>
      <point x="396" y="659" type="line"/>
      <point x="298" y="659" type="line"/>
      <point x="298" y="61" type="line"/>
      <point x="396" y="61" type="line"/>
    </contour>
  </outline>
</glyph>
<glyph name="U" format="1">
  <advance width="633"/>
  <unicode hex="0055"/>
  <outline>
    <contour>
      <point x="581" y="264" type="line" smooth="yes"/>
      <point x="581" y="70"/>
      <point x="475" y="-12"/>
      <point x="316" y="-12" type="curve" smooth="yes"/>
      <point x="156" y="-12"/>
      <point x="52" y="70"/>
      <point x="52" y="264" type="curve" smooth="yes"/>
      <point x="52" y="720" type="line"/>
      <point x="212" y="720" type="line"/>
      <point x="212" y="260" type="line" smooth="yes"/>
      <point x="212" y="156"/>
      <point x="253" y="114"/>
      <point x="321" y="114" type="curve" smooth="yes"/>
      <point x="389" y="114"/>
      <point x="429" y="155"/>
      <point x="429" y="258" type="curve" smooth="yes"/>
      <point x="429" y="720" type="line"/>
      <point x="581" y="720" type="line"/>
    </contour>
  </outline>
</glyph>
<glyph name="V" format="1">
  <advance width="661"/>
  <unicode hex="0056"/>
  <outline>
    <contour>
      <point x="646" y="720" type="line"/>
      <point x="419" y="-5" type="line"/>
      <point x="242" y="-5" type="line"/>
      <point x="16" y="720" type="line"/>
      <point x="182" y="720" type="line"/>
      <point x="331" y="167" type="line"/>
      <point x="335" y="167" type="line"/>
      <point x="484" y="720" type="line"/>
    </contour>
  </outline>
</glyph>
<glyph name="X" format="1">
  <advance width="650"/>
  <unicode hex="0058"/>
  <outline>
    <contour>
      <point x="635" y="0" type="line"/>
      <point x="456" y="0" type="line"/>
      <point x="317" y="241" type="line"/>
      <point x="173" y="0" type="line"/>
      <point x="15" y="0" type="line"/>
      <point x="241" y="361" type="line"/>
      <point x="28" y="720" type="line"/>
      <point x="207" y="720" type="line"/>
      <point x="333" y="500" type="line"/>
      <point x="464" y="720" type="line"/>
      <point x="621" y="720" type="line"/>
      <point x="409" y="380" type="line"/>
    </contour>
  </outline>
</glyph>
<glyph name="bracketright" format="1">
  <advance width="389"/>
  <unicode hex="005D"/>
  <outline>
    <contour>
      <point x="330" y="-90" type="line"/>
      <point x="23" y="-80" type="line"/>
      <point x="23" y="-19" type="line"/>
      <point x="189" y="-25" type="line"/>
      <point x="189" y="665" type="line"/>
      <point x="23" y="659" type="line"/>
      <point x="23" y="720" type="line"/>
      <point x="330" y="730" type="line"/>
    </contour>
  </outline>
</glyph>
<glyph name="a" format="1">
  <advance width="524"/>
  <unicode hex="0061"/>
  <outline>
    <contour>
      <point x="511" y="-5" type="line"/>
      <point x="399" y="-5"/>
      <point x="343" y="25"/>
      <point x="327" y="74" type="curve"/>
      <point x="322" y="74" type="line"/>
      <point x="272" y="20"/>
      <point x="225" y="-6"/>
      <point x="165" y="-6" type="curve" smooth="yes"/>
      <point x="87" y="-6"/>
      <point x="22" y="44"/>
      <point x="22" y="135" type="curve" smooth="yes"/>
      <point x="22" y="243"/>
      <point x="117" y="307"/>
      <point x="322" y="315" type="curve"/>
      <point x="322" y="363" type="line" smooth="yes"/>
      <point x="322" y="411"/>
      <point x="297" y="436"/>
      <point x="251" y="436" type="curve" smooth="yes"/>
      <point x="208" y="436"/>
      <point x="161" y="422"/>
      <point x="94" y="386" type="curve"/>
      <point x="54" y="475" type="line"/>
      <point x="128" y="514"/>
      <point x="194" y="538"/>
      <point x="277" y="538" type="curve" smooth="yes"/>
      <point x="406" y="538"/>
      <point x="461" y="488"/>
      <point x="461" y="366" type="curve" smooth="yes"/>
      <point x="461" y="108" type="line" smooth="yes"/>
      <point x="461" y="69"/>
      <point x="472" y="55"/>
      <point x="511" y="50" type="curve"/>
    </contour>
    <contour>
      <point x="322" y="124" type="curve"/>
      <point x="322" y="259" type="line"/>
      <point x="200" y="252"/>
      <point x="159" y="209"/>
      <point x="159" y="153" type="curve" smooth="yes"/>
      <point x="159" y="108"/>
      <point x="187" y="82"/>
      <point x="231" y="82" type="curve" smooth="yes"/>
      <point x="265" y="82"/>
      <point x="294" y="95"/>
    </contour>
  </outline>
</glyph>
<glyph name="o" format="1">
  <advance width="529"/>
  <unicode hex="006F"/>
  <outline>
    <contour>
      <point x="499" y="255" type="line" smooth="yes"/>
      <point x="499" y="92"/>
      <point x="411" y="-10"/>
      <point x="264" y="-10" type="curve" smooth="yes"/>
      <point x="117" y="-10"/>
      <point x="30" y="91"/>
      <point x="30" y="255" type="curve" smooth="yes"/>
      <point x="30" y="277" type="line" smooth="yes"/>
      <point x="30" y="440"/>
      <point x="117" y="542"/>
      <point x="264" y="542" type="curve" smooth="yes"/>
      <point x="411" y="542"/>
      <point x="499" y="441"/>
      <point x="499" y="278" type="curve" smooth="yes"/>
    </contour>
    <contour>
      <point x="349" y="254" type="curve" smooth="yes"/>
      <point x="349" y="278" type="line" smooth="yes"/>
      <point x="349" y="398"/>
      <point x="321" y="451"/>
      <point x="264" y="451" type="curve" smooth="yes"/>
      <point x="207" y="451"/>
      <point x="180" y="398"/>
      <point x="180" y="278" type="curve" smooth="yes"/>
      <point x="180" y="255" type="line" smooth="yes"/>
      <point x="180" y="134"/>
      <point x="207" y="81"/>
      <point x="264" y="81" type="curve" smooth="yes"/>
      <point x="321" y="81"/>
      <point x="349" y="134"/>
    </contour>
  </outline>
</glyph>
<glyph name="w" format="1">
  <advance width="822"/>
  <unicode hex="0077"/>
  <outline>
    <contour>
      <point x="807" y="532" type="line"/>
      <point x="657" y="-4" type="line"/>
      <point x="501" y="-4" type="line"/>
      <point x="413" y="352" type="line"/>
      <point x="324" y="-4" type="line"/>
      <point x="165" y="-4" type="line"/>
      <point x="16" y="532" type="line"/>
      <point x="171" y="532" type="line"/>
      <point x="251" y="160" type="line"/>
      <point x="342" y="532" type="line"/>
      <point x="488" y="532" type="line"/>
      <point x="579" y="160" type="line"/>
      <point x="659" y="532" type="line"/>
    </contour>
  </outline>
</glyph>
<glyph name="bar" format="1">
  <advance width="260"/>
  <unicode hex="007C"/>
  <outline>
    <contour>
      <point x="192" y="-188" type="line"/>
      <point x="68" y="-188" type="line"/>
      <point x="68" y="762" type="line"/>
      <point x="192" y="762" type="line"/>
    </contour>
  </outline>
</glyph>
<glyph name="braceright" format="1">
  <advance width="442"/>
  <unicode hex="007D"/>
  <outline>
    <contour>
      <point x="428" y="290" type="line"/>
      <point x="353" y="290"/>
      <point x="297" y="264"/>
      <point x="297" y="193" type="curve" smooth="yes"/>
      <point x="297" y="149"/>
      <point x="317" y="89"/>
      <point x="317" y="46" type="curve" smooth="yes"/>
      <point x="317" y="-37"/>
      <point x="266" y="-80"/>
      <point x="168" y="-80" type="curve" smooth="yes"/>
      <point x="25" y="-80" type="line"/>
      <point x="25" y="-19" type="line"/>
      <point x="100" y="-19" type="line" smooth="yes"/>
      <point x="151" y="-19"/>
      <point x="176" y="8"/>
      <point x="176" y="51" type="curve" smooth="yes"/>
      <point x="176" y="86"/>
      <point x="156" y="144"/>
      <point x="156" y="193" type="curve" smooth="yes"/>
      <point x="156" y="270"/>
      <point x="205" y="297"/>
      <point x="261" y="316" type="curve"/>
      <point x="261" y="324" type="line"/>
      <point x="205" y="343"/>
      <point x="156" y="370"/>
      <point x="156" y="447" type="curve" smooth="yes"/>
      <point x="156" y="496"/>
      <point x="176" y="554"/>
      <point x="176" y="589" type="curve" smooth="yes"/>
      <point x="176" y="632"/>
      <point x="151" y="659"/>
      <point x="100" y="659" type="curve" smooth="yes"/>
      <point x="25" y="659" type="line"/>
      <point x="25" y="720" type="line"/>
      <point x="168" y="720" type="line" smooth="yes"/>
      <point x="266" y="720"/>
      <point x="317" y="677"/>
      <point x="317" y="594" type="curve" smooth="yes"/>
      <point x="317" y="551"/>
      <point x="297" y="491"/>
      <point x="297" y="447" type="curve" smooth="yes"/>
      <point x="297" y="376"/>
      <point x="353" y="350"/>
      <point x="428" y="350" type="curve"/>
    </contour>
  </outline>
</glyph>
<glyph name="cent" format="1">
  <advance width="502"/>
  <unicode hex="00A2"/>
  <outline>
    <contour>
      <point x="488" y="627" type="line"/>
      <point x="231" y="92" type="line"/>
      <point x="241" y="87"/>
      <point x="251" y="85"/>
      <point x="263" y="85" type="curve" smooth="yes"/>
      <point x="302" y="85"/>
      <point x="332" y="110"/>
      <point x="348" y="183" type="curve"/>
      <point x="471" y="156" type="line"/>
      <point x="444" y="43"/>
      <point x="372" y="-10"/>
      <point x="258" y="-10" type="curve" smooth="yes"/>
      <point x="231" y="-10"/>
      <point x="206" y="-6"/>
      <point x="184" y="1" type="curve"/>
      <point x="137" y="-95" type="line"/>
      <point x="52" y="-95" type="line"/>
      <point x="119" y="34" type="line"/>
      <point x="62" y="77"/>
      <point x="30" y="155"/>
      <point x="30" y="255" type="curve" smooth="yes"/>
      <point x="30" y="277" type="line" smooth="yes"/>
      <point x="30" y="440"/>
      <point x="119" y="542"/>
      <point x="263" y="542" type="curve" smooth="yes"/>
      <point x="299" y="542"/>
      <point x="330" y="536"/>
      <point x="357" y="525" type="curve"/>
      <point x="403" y="627" type="line"/>
    </contour>
    <contour>
      <point x="314" y="434" type="line"/>
      <point x="300" y="443"/>
      <point x="285" y="447"/>
      <point x="264" y="447" type="curve" smooth="yes"/>
      <point x="206" y="447"/>
      <point x="171" y="395"/>
      <point x="171" y="271" type="curve" smooth="yes"/>
      <point x="171" y="261" type="line" smooth="yes"/>
      <point x="171" y="216"/>
      <point x="180" y="178"/>
      <point x="195" y="153" type="curve"/>
    </contour>
  </outline>
</glyph>
<glyph name="periodcentered" format="1">
  <advance width="236"/>
  <unicode hex="00B7"/>
  <outline>
    <contour>
      <point x="205" y="278" type="curve" smooth="yes"/>
      <point x="205" y="228"/>
      <point x="168" y="191"/>
      <point x="118" y="191" type="curve" smooth="yes"/>
      <point x="68" y="191"/>
      <point x="31" y="228"/>
      <point x="31" y="278" type="curve" smooth="yes"/>
      <point x="31" y="328"/>
      <point x="68" y="365"/>
      <point x="118" y="365" type="curve" smooth="yes"/>
      <point x="168" y="365"/>
      <point x="205" y="328"/>
    </contour>
  </outline>
</glyph>
<glyph name="cedilla" format="1">
  <advance width="500"/>
  <unicode hex="00B8"/>
  <outline>
    <contour>
      <point x="399" y="-98" type="curve" smooth="yes"/>
      <point x="399" y="-163"/>
      <point x="323" y="-194"/>
      <point x="137" y="-191" type="curve"/>
      <point x="137" y="-160" type="line"/>
      <point x="268" y="-160"/>
      <point x="309" y="-143"/>
      <point x="309" y="-116" type="curve" smooth="yes"/>
      <point x="309" y="-102"/>
      <point x="298" y="-94"/>
      <point x="274" y="-94" type="curve" smooth="yes"/>
      <point x="256" y="-94"/>
      <point x="238" y="-98"/>
      <point x="219" y="-105" type="curve"/>
      <point x="187" y="-85" type="line"/>
      <point x="251" y="0" type="line"/>
      <point x="299" y="0" type="line"/>
      <point x="265" y="-46" type="line"/>
      <point x="276" y="-43"/>
      <point x="295" y="-41"/>
      <point x="314" y="-41" type="curve" smooth="yes"/>
      <point x="364" y="-41"/>
      <point x="399" y="-59"/>
    </contour>
  </outline>
</glyph>
<glyph name="guillemotright" format="1">
  <advance width="507"/>
  <unicode hex="00BB"/>
  <outline>
    <contour>
      <point x="490" y="266" type="line"/>
      <point x="329" y="70" type="line"/>
      <point x="247" y="70" type="line"/>
      <point x="337" y="266" type="line"/>
      <point x="247" y="462" type="line"/>
      <point x="329" y="462" type="line"/>
    </contour>
    <contour>
      <point x="272" y="266" type="line"/>
      <point x="110" y="70" type="line"/>
      <point x="29" y="70" type="line"/>
      <point x="118" y="266" type="line"/>
      <point x="29" y="462" type="line"/>
      <point x="110" y="462" type="line"/>
    </contour>
  </outline>
</glyph>
<glyph name="Ccedilla" format="1">
  <advance width="609"/>
  <unicode hex="00C7"/>
  <outline>
    <contour>
      <point x="585" y="224" type="line"/>
      <point x="558" y="80"/>
      <point x="480" y="-5"/>
      <point x="338" y="-12" type="curve"/>
      <point x="313" y="-46" type="line"/>
      <point x="325" y="-43"/>
      <point x="343" y="-41"/>
      <point x="362" y="-41" type="curve" smooth="yes"/>
      <point x="412" y="-41"/>
      <point x="447" y="-59"/>
      <point x="447" y="-98" type="curve" smooth="yes"/>
      <point x="447" y="-163"/>
      <point x="372" y="-194"/>
      <point x="185" y="-191" type="curve"/>
      <point x="185" y="-160" type="line"/>
      <point x="316" y="-160"/>
      <point x="358" y="-143"/>
      <point x="358" y="-116" type="curve" smooth="yes"/>
      <point x="358" y="-102"/>
      <point x="346" y="-94"/>
      <point x="323" y="-94" type="curve" smooth="yes"/>
      <point x="304" y="-94"/>
      <point x="286" y="-98"/>
      <point x="268" y="-105" type="curve"/>
      <point x="235" y="-85" type="line"/>
      <point x="291" y="-11" type="line"/>
      <point x="138" y="2"/>
      <point x="39" y="124"/>
      <point x="39" y="336" type="curve" smooth="yes"/>
      <point x="39" y="384" type="line" smooth="yes"/>
      <point x="39" y="608"/>
      <point x="150" y="732"/>
      <point x="320" y="732" type="curve" smooth="yes"/>
      <point x="485" y="732"/>
      <point x="558" y="635"/>
      <point x="582" y="499" type="curve"/>
      <point x="429" y="463" type="line"/>
      <point x="413" y="565"/>
      <point x="383" y="611"/>
      <point x="320" y="611" type="curve" smooth="yes"/>
      <point x="238" y="611"/>
      <point x="204" y="528"/>
      <point x="204" y="404" type="curve" smooth="yes"/>
      <point x="204" y="317" type="line" smooth="yes"/>
      <point x="204" y="193"/>
      <point x="239" y="109"/>
      <point x="322" y="109" type="curve" smooth="yes"/>
      <point x="388" y="109"/>
      <point x="420" y="157"/>
      <point x="438" y="259" type="curve"/>
    </contour>
  </outline>
</glyph>
<glyph name="germandbls" format="1">
  <advance width="611"/>
  <unicode hex="00DF"/>
  <outline>
    <contour>
      <point x="583" y="194" type="curve" smooth="yes"/>
      <point x="583" y="62"/>
      <point x="505" y="-7"/>
      <point x="375" y="-7" type="curve" smooth="yes"/>
      <point x="320" y="-7"/>
      <point x="289" y="3"/>
      <point x="260" y="17" type="curve"/>
      <point x="276" y="113" type="line"/>
      <point x="297" y="100"/>
      <point x="316" y="94"/>
      <point x="347" y="94" type="curve" smooth="yes"/>
      <point x="397" y="94"/>
      <point x="435" y="131"/>
      <point x="435" y="196" type="curve" smooth="yes"/>
      <point x="435" y="287"/>
      <point x="375" y="344"/>
      <point x="273" y="364" type="curve"/>
      <point x="273" y="456" type="line"/>
      <point x="348" y="464"/>
      <point x="382" y="509"/>
      <point x="382" y="569" type="curve" smooth="yes"/>
      <point x="382" y="622"/>
      <point x="351" y="660"/>
      <point x="292" y="660" type="curve" smooth="yes"/>
      <point x="230" y="660"/>
      <point x="202" y="615"/>
      <point x="202" y="540" type="curve" smooth="yes"/>
      <point x="202" y="0" type="line"/>
      <point x="51" y="0" type="line"/>
      <point x="51" y="523" type="line" smooth="yes"/>
      <point x="51" y="680"/>
      <point x="146" y="759"/>
      <point x="296" y="759" type="curve" smooth="yes"/>
      <point x="447" y="759"/>
      <point x="527" y="685"/>
      <point x="527" y="579" type="curve" smooth="yes"/>
      <point x="527" y="487"/>
      <point x="478" y="442"/>
      <point x="417" y="418" type="curve"/>
      <point x="417" y="412" type="line"/>
      <point x="505" y="381"/>
      <point x="583" y="315"/>
    </contour>
  </outline>
</glyph>
<glyph name="dotlessi" format="1">
  <advance width="262"/>
  <unicode hex="0131"/>
  <outline>
    <contour>
      <point x="206" y="0" type="line"/>
      <point x="56" y="0" type="line"/>
      <point x="56" y="532" type="line"/>
      <point x="206" y="532" type="line"/>
    </contour>
  </outline>
</glyph>
<glyph name="breve" format="1">
  <advance width="500"/>
  <unicode hex="02D8"/>
  <outline>
    <contour>
      <point x="409" y="758" type="line"/>
      <point x="406" y="653"/>
      <point x="357" y="589"/>
      <point x="250" y="589" type="curve" smooth="yes"/>
      <point x="143" y="589"/>
      <point x="94" y="653"/>
      <point x="91" y="758" type="curve"/>
      <point x="152" y="758" type="line"/>
      <point x="160" y="702"/>
      <point x="187" y="669"/>
      <point x="250" y="669" type="curve" smooth="yes"/>
      <point x="313" y="669"/>
      <point x="340" y="702"/>
      <point x="348" y="758" type="curve"/>
    </contour>
  </outline>
</glyph>
<glyph name="daggerdbl" format="1">
  <advance width="510"/>
  <unicode hex="2021"/>
  <outline>
    <contour>
      <point x="471" y="148" type="line"/>
      <point x="295" y="184" type="line"/>
      <point x="334" y="0" type="line"/>
      <point x="176" y="0" type="line"/>
      <point x="215" y="184" type="line"/>
      <point x="40" y="148" type="line"/>
      <point x="40" y="263" type="line"/>
      <point x="215" y="228" type="line"/>
      <point x="178" y="360" type="line"/>
      <point x="215" y="492" type="line"/>
      <point x="40" y="457" type="line"/>
      <point x="40" y="572" type="line"/>
      <point x="215" y="536" type="line"/>
      <point x="176" y="720" type="line"/>
      <point x="334" y="720" type="line"/>
      <point x="295" y="536" type="line"/>
      <point x="471" y="572" type="line"/>
      <point x="471" y="457" type="line"/>
      <point x="295" y="492" type="line"/>
      <point x="331" y="360" type="line"/>
      <point x="295" y="228" type="line"/>
      <point x="471" y="263" type="line"/>
    </contour>
  </outline>
</glyph>
<glyph name="Euro" format="1">
  <advance width="609"/>
  <unicode hex="20AC"/>
  <outline>
    <contour>
      <point x="583" y="144" type="line"/>
      <point x="520" y="44"/>
      <point x="449" y="-12"/>
      <point x="317" y="-12" type="curve" smooth="yes"/>
      <point x="151" y="-12"/>
      <point x="39" y="111"/>
      <point x="39" y="336" type="curve" smooth="yes"/>
      <point x="39" y="385" type="line" smooth="yes"/>
      <point x="39" y="609"/>
      <point x="150" y="732"/>
      <point x="321" y="732" type="curve" smooth="yes"/>
      <point x="456" y="732"/>
      <point x="523" y="685"/>
      <point x="581" y="582" type="curve"/>
      <point x="461" y="504" type="line"/>
      <point x="421" y="578"/>
      <point x="383" y="612"/>
      <point x="325" y="612" type="curve" smooth="yes"/>
      <point x="254" y="612"/>
      <point x="214" y="555"/>
      <point x="204" y="462" type="curve"/>
      <point x="399" y="462" type="line"/>
      <point x="399" y="394" type="line"/>
      <point x="201" y="394" type="line"/>
      <point x="201" y="388"/>
      <point x="200" y="383"/>
      <point x="200" y="378" type="curve" smooth="yes"/>
      <point x="200" y="335" type="line" smooth="yes"/>
      <point x="200" y="329"/>
      <point x="201" y="322"/>
      <point x="201" y="316" type="curve"/>
      <point x="399" y="316" type="line"/>
      <point x="399" y="248" type="line"/>
      <point x="205" y="248" type="line"/>
      <point x="217" y="161"/>
      <point x="260" y="108"/>
      <point x="334" y="108" type="curve" smooth="yes"/>
      <point x="395" y="108"/>
      <point x="432" y="142"/>
      <point x="475" y="216" type="curve"/>
    </contour>
  </outline>
</glyph>
<glyph name="bullet" format="1">
  <advance width="428"/>
  <outline>
    <contour>
      <point x="388" y="373" type="curve" smooth="yes"/>
      <point x="388" y="275"/>
      <point x="312" y="199"/>
      <point x="214" y="199" type="curve" smooth="yes"/>
      <point x="116" y="199"/>
      <point x="39" y="275"/>
      <point x="39" y="373" type="curve" smooth="yes"/>
      <point x="39" y="471"/>
      <point x="116" y="547"/>
      <point x="214" y="547" type="curve" smooth="yes"/>
      <point x="312" y="547"/>
      <point x="388" y="471"/>
    </contour>
  </outline>
</glyph>
